<svg xmlns="http://www.w3.org/2000/svg" viewBox="0 0 860 600" width="100%" style="max-width:860px;background-color:transparent" role="img" aria-label="The control plane from the operator's point of view, with the registration and sync work it does out of band drawn in">
  <defs><style>
      .eyebrow{font-family:ui-monospace,SFMono-Regular,Menlo,monospace;font-size:13px;fill:#55d68a;letter-spacing:.2em}
      .head{font-family:Georgia,"Times New Roman",serif;font-size:30px;fill:#f2f2f0}
      .headi{font-family:Georgia,"Times New Roman",serif;font-size:30px;fill:#55d68a;font-style:italic}
      .node{font-family:ui-monospace,SFMono-Regular,Menlo,monospace;font-size:12.5px;fill:#c9c9c6;letter-spacing:.06em}
      .cap{font-family:ui-monospace,SFMono-Regular,Menlo,monospace;font-size:12px;fill:#8a8a86;letter-spacing:.04em}
      .good{font-family:ui-monospace,SFMono-Regular,Menlo,monospace;font-size:12px;fill:#55d68a;letter-spacing:.05em}
      .bad{font-family:ui-monospace,SFMono-Regular,Menlo,monospace;font-size:12px;fill:#c46a6a;letter-spacing:.05em}
      .ln{stroke:#4a4e4a;stroke-width:1.4;fill:none}
      .lng{stroke:#55d68a;stroke-width:1.6;fill:none}
      .lnb{stroke:#c46a6a;stroke-width:1.4;fill:none}
      .lnd{stroke:#4a4e4a;stroke-width:1.4;fill:none;stroke-dasharray:5 4}
      .shape{fill:none;stroke:#5a5e5a;stroke-width:1.5}
      .shapeg{fill:none;stroke:#55d68a;stroke-width:1.8}
      .shapeb{fill:none;stroke:#c46a6a;stroke-width:1.5}
      .dash{fill:none;stroke:#5a5e5a;stroke-width:1.3;stroke-dasharray:5 4}
      .lngd{stroke:#55d68a;stroke-width:1.5;fill:none;stroke-dasharray:5 4}
      .lnbd{stroke:#c46a6a;stroke-width:1.5;fill:none;stroke-dasharray:5 4}
    </style>
    <marker id="ar" viewBox="0 0 10 10" refX="9" refY="5" markerWidth="7" markerHeight="7" orient="auto"><path d="M0 0 L10 5 L0 10 z" fill="#4a4e4a"/></marker>
    <marker id="arg" viewBox="0 0 10 10" refX="9" refY="5" markerWidth="7" markerHeight="7" orient="auto"><path d="M0 0 L10 5 L0 10 z" fill="#55d68a"/></marker>
    <marker id="arb" viewBox="0 0 10 10" refX="9" refY="5" markerWidth="7" markerHeight="7" orient="auto"><path d="M0 0 L10 5 L0 10 z" fill="#c46a6a"/></marker>
    <marker id="arr" viewBox="0 0 10 10" refX="9" refY="5" markerWidth="7" markerHeight="7" orient="auto-start-reverse"><path d="M0 0 L10 5 L0 10 z" fill="#4a4e4a"/></marker>
  </defs>
  <text class="eyebrow" x="40" y="44">4.1 &#183; AGENT IDENTITY</text>
  <text class="head" x="40" y="86">What the operator does <tspan class="headi">out of band</tspan></text>
  <text class="cap" x="40" y="132" text-anchor="start">REQUEST PATH</text>
  <text class="cap" x="40" y="274" text-anchor="start">IDENTITY PROVIDERS</text>
  <text class="cap" x="40" y="424" text-anchor="start">OUT OF BAND</text>
  <g opacity="0.32">
  <rect class="shape" x="40" y="144" width="220" height="64" rx="4"/>
  <text class="node" x="150" y="172" text-anchor="middle">USERS</text>
  <text class="cap" x="150" y="192" text-anchor="middle">alice, bob, ...</text>
  </g>
  <g opacity="0.32">
  <rect class="shape" x="320" y="144" width="220" height="64" rx="4"/>
  <text class="node" x="430" y="172" text-anchor="middle">GATEWAY MESH</text>
  <text class="cap" x="430" y="192" text-anchor="middle">every request</text>
  </g>
  <g opacity="0.32">
  <rect class="shape" x="600" y="144" width="220" height="64" rx="4"/>
  <text class="node" x="710" y="172" text-anchor="middle">KAOS RESOURCES</text>
  <text class="cap" x="710" y="192" text-anchor="middle">agents, MCPs, models</text>
  </g>
  <rect class="shape" x="40" y="286" width="220" height="64" rx="4"/>
  <text class="node" x="150" y="314" text-anchor="middle">USER AUTH</text>
  <text class="cap" x="150" y="334" text-anchor="middle">Keycloak, OIDC</text>
  <rect class="shape" x="320" y="286" width="220" height="64" rx="4"/>
  <text class="node" x="430" y="314" text-anchor="middle">KAOS AUTHZ</text>
  <text class="cap" x="430" y="334" text-anchor="middle">user + agent access</text>
  <rect class="shape" x="600" y="286" width="220" height="64" rx="4"/>
  <text class="node" x="710" y="314" text-anchor="middle">AGENT AUTH</text>
  <text class="cap" x="710" y="334" text-anchor="middle">ServiceAccount, OIDC</text>
  <rect class="shapeg" x="40" y="436" width="220" height="64" rx="4"/>
  <text class="good" x="150" y="464" text-anchor="middle">KAOS OPERATOR</text>
  <text class="cap" x="150" y="484" text-anchor="middle">syncs identity + grants</text>
  <g opacity="0.32">
  <rect class="dash" x="320" y="436" width="220" height="64" rx="4"/>
  <text class="node" x="430" y="464" text-anchor="middle">IDENTITY BROKER</text>
  <text class="cap" x="430" y="484" text-anchor="middle">AIB, section 5</text>
  </g>
  <g opacity="0.32">
  <rect class="dash" x="600" y="436" width="220" height="64" rx="4"/>
  <text class="node" x="710" y="464" text-anchor="middle">3RD-PARTY SERVICE</text>
  <text class="cap" x="710" y="484" text-anchor="middle">GitHub, ...</text>
  </g>
  <g opacity="0.32">
  <line class="ln" x1="260" y1="176" x2="316" y2="176" marker-end="url(#ar)"/>
  <line class="ln" x1="540" y1="176" x2="596" y2="176" marker-end="url(#ar)"/>
  </g>
  <path class="lngd" d="M150 436 V354" marker-end="url(#arg)"/>
  <path class="lngd" d="M210 436 L390 354" marker-end="url(#arg)"/>
  <path class="lngd" d="M250 436 L650 354" marker-end="url(#arg)"/>
  <path class="lngd" d="M260 468 H316" marker-end="url(#arg)"/>
  <circle cx="150" cy="408" r="10" fill="#0f1115" stroke="#55d68a" stroke-width="1.4"/>
  <text class="good" x="150" y="412" text-anchor="middle">1</text>
  <circle cx="280" cy="396" r="10" fill="#0f1115" stroke="#55d68a" stroke-width="1.4"/>
  <text class="good" x="280" y="400" text-anchor="middle">2</text>
  <circle cx="450" cy="386" r="10" fill="#0f1115" stroke="#55d68a" stroke-width="1.4"/>
  <text class="good" x="450" y="390" text-anchor="middle">3</text>
  <circle cx="290" cy="468" r="10" fill="#0f1115" stroke="#55d68a" stroke-width="1.4"/>
  <text class="good" x="290" y="472" text-anchor="middle">4</text>
  <circle cx="50" cy="536" r="10" fill="#0f1115" stroke="#55d68a" stroke-width="1.4"/>
  <text class="good" x="50" y="540" text-anchor="middle">1</text>
  <text class="cap" x="70" y="540" text-anchor="start">provisions users and groups at install</text>
  <circle cx="50" cy="560" r="10" fill="#0f1115" stroke="#55d68a" stroke-width="1.4"/>
  <text class="good" x="50" y="564" text-anchor="middle">2</text>
  <text class="cap" x="70" y="564" text-anchor="start">projects AccessGrant data</text>
  <circle cx="470" cy="536" r="10" fill="#0f1115" stroke="#55d68a" stroke-width="1.4"/>
  <text class="good" x="470" y="540" text-anchor="middle">3</text>
  <text class="cap" x="490" y="540" text-anchor="start">registers each agent as a client (DCR)</text>
  <circle cx="470" cy="560" r="10" fill="#0f1115" stroke="#55d68a" stroke-width="1.4"/>
  <text class="good" x="470" y="564" text-anchor="middle">4</text>
  <text class="cap" x="490" y="564" text-anchor="start">keeps agent names current, section 5</text>
</svg>
