<?xml version="1.0" encoding="UTF-8"?>
<svg id="Layer_1" data-name="Layer 1" xmlns="http://www.w3.org/2000/svg" viewBox="18 591 902 335">
  <defs>
    <style>
      .cls-1 {
        stroke: #022899;
      }

      .cls-2 {
        fill: #e3000f;
      }

      .cls-2, .cls-3 {
        stroke-width: 0px;
      }
    </style>
  </defs>
  <g>
    <path class="cls-2" d="M307.85,735.71c2.34,3.58,2.18,8.24,2.65,12.45-.16,8.88.62,19.46-.94,28.5-.78,3.73-3.27,7.63-7.16,9.03-6.23,2.81-14.64,2.03-20.4-1.24-4.83-3.42-5.45-9.2-6.08-14.64-.47-10.74-1.25-22.12,1.71-31.93,2.33-6.07,8.73-7.63,14.48-8.09,6.08,0,12,.94,15.74,5.93"/>
    <path class="cls-2" d="M226.09,871.97c.47.93-.77.63-1.09.93-16.51,3.59-34.88,3.75-51.4-.3-.3-.79.78-.94,1.25-1.41,14.48-9.5,37.07-9.5,51.23.78M170.34,868.38c-.78.94-2.02,1.87-3.11,2.49-13.08-3.43-25.24-9.34-36.45-17.45v-.45c3.74-2.35,7.47-4.83,11.53-6.55,8.87,8.88,18.06,15.57,28.03,21.95ZM269.07,852.98c-8.73,7-18.85,11.67-29.12,15.57l-7.33,2.33c-1.24-.62-2.33-1.55-3.42-2.49l.31-.47c9.96-5.92,18.99-13.07,27.57-21.65,4.19,1.72,8.25,4.05,11.99,6.71ZM252.41,844.09c-4.98,5.76-11.37,10.74-17.29,14.95-3.58,2.18-7.16,4.51-10.91,6.38l-6.69-2.95.46-1.11c5.62-7.61,10.59-15.41,14.95-23.65l.47-.32c6.7,1.56,13.09,3.74,19,6.7ZM166.76,837.56c4.51,8.56,10.12,16.65,15.73,24.76-2.19,1.24-4.83,2.02-7.01,3.27-10.29-5.14-20.09-12.31-28.35-20.87v-.47c6.08-2.96,12.46-5.14,19-6.85l.62.17ZM228.27,836.15l.15.47c-4.36,8.41-9.81,16.51-15.73,24.14-2.65.31-5.14-.78-7.79-.93l-2.65-.33c-.31-9.18-.47-17.28,0-26.47,8.88.17,17.76,1.1,26.01,3.12ZM197.6,859.35c-3.28.79-6.85.79-9.97,1.57-6.39-7.63-11.68-15.89-16.2-24.46l.77-.63c8.1-1.56,16.51-2.79,25.23-2.79l.16,26.31ZM164.89,823.54c-1.56,0-3.27-.32-4.36.15l3.89,9.18-.47.46c-7.01,2.03-13.86,4.53-20.56,7.33l-.63-.32c-4.36-4.82-8.56-10.11-11.99-15.41-.78-2.64-3.89-1.1-5.62-1.4,3.74,6.85,8.73,12.92,13.72,19.14-4.21,2.49-8.41,5.31-12.77,7.33-9.34-7.17-18.07-16.51-24.6-26.32-1.88-.31-3.13-.15-4.99,0,11.21,17.75,28.64,33.32,46.87,42.51l.15-.15.16.47c12.3,6.08,25.38,10.43,39.23,12.3,47.82,6.39,93.45-14.33,119.92-55.13-1.4-.15-3.42-.15-4.98,0-6.54,9.51-14.8,18.68-23.83,25.86l-1.56-.16c-3.89-2.49-8.1-4.52-11.83-7.02,4.99-6.07,9.82-12.14,13.55-18.83h-4.83c-3.9,5.76-7.94,11.83-13.08,16.97-6.85-2.81-13.08-5.3-20.09-7.17l-.78-.61c1.1-3.12,3.12-6.08,3.74-9.19h-4.2l-4.21,8.41c-9.18-2.03-19.31-3.11-28.65-3.73-.47-1.4.16-3.43-.47-4.67h-4.04c-.33,1.86.46,3.27-.47,4.83-9.66.46-19,1.54-28.03,3.43l-4.21-8.27ZM66.15,703.93l-9.65.15c-.16,8.26-.16,17.91,0,26.32,5.29.16,10.28,0,15.42.48v52.94l-.16,2.18-15.42.31c-.31,8.72-.31,17.14,0,25.69h68.69v-25.69c-5.15-.31-10.91.15-15.89-.47l.16-54.66.3-.46,15.42-.16c.14-8.88.3-18.37-.16-26.49l-58.71-.15ZM330.75,713.28c-20.23-13.09-51.08-14.02-71.95-2.18-11.37,5.92-18.84,17.6-21.18,29.58-4.21,19.79-3.12,43.3,11.83,58.09,17.44,15.57,42.83,19,65.41,12.62,1.06-.22,4.48-1.1,6.8-2.37l.66-.29c7.01-2.96,13.71-7.79,18.69-14.33,11.53-17.14,12.3-42.83,5.3-62.13-2.82-7.47-8.58-14.17-15.58-19ZM198.68,708.29c-17.13-7.31-41.11-8.1-56.69,3.27-10.12,7.48-13.23,20.86-10.58,32.7,2.02,11.21,12.61,19.48,22.74,23.36,13.86,4.98,28.34,8.56,42.36,13.4,1.4.61,3.27,2.01,2.96,3.73,0,1.41-1.41,2.19-2.49,2.82-14.63,4.04-30.52.93-41.12-10.29-1.25-1.56-2.03-3.43-3.27-4.98l-21.03.16c-.31,12.62-.47,27.09,0,39.55l23.35-.16.31-7.48c2.65,1.25,5.3,2.82,7.94,4.22,16.19,6.85,37.06,8.41,53.11,0,11.67-6.54,17.9-19.16,16.19-32.71-1.72-13.23-14.17-25.23-26.79-28.49l-37.67-11.06-2.82-1.4c-1.24-1.1-2.02-2.49-1.7-4.2,2.96-5.14,9.81-3.59,14.95-3.42,10.9,1.55,22.11,5.29,28.5,15.41,6.85,0,14.79.15,22.26-.15.31-12.77-.15-23.99-.31-36.91-7.01-.16-15.58-.16-22.58.16-.33,1.86.3,4.52-.47,6.39l-7.16-3.91ZM211.3,655.34c6.07,7.79,11.99,15.73,16.03,24.29-8.4,2.03-16.96,3.12-25.7,3.12-.31-8.25-.15-17.45,0-26.01,3.12-.47,6.54-.93,9.66-1.41ZM196.67,656.59c.46,8.1.15,17.44.15,26-4.36.62-8.25-.16-12.61-.47-4.21-.62-9.51-1.09-13.7-2.49,4.51-8.56,9.8-16.81,16.19-24.45l9.97,1.4ZM181.55,653.63l-.47,1.25c-5.92,7.47-10.58,15.57-15.26,23.51l-.63.15c-6.38-1.71-12.61-3.74-18.53-6.38l.31-.93c8.57-8.26,17.61-15.12,27.57-20.4,2.33.93,4.67,1.71,7.01,2.81ZM251.63,671.38l-.31.47c-6.07,2.65-12.31,5.14-19,6.54-4.83-8.25-10.11-16.51-16.03-24.45,2.17-1.25,4.82-2.18,7.16-3.42,10.12,5.13,19.94,12.44,28.18,20.86ZM169.87,647.86c-9.65,6.08-19.15,13.23-27.88,21.96-4.19-1.56-8.09-3.9-11.84-6.54v-.31c9.82-7.31,20.72-12.77,32.24-16.5l1.41-.93v.31c1.24.31,2.18-1.09,3.27-.16.93.78,2.02,1.4,2.79,2.18ZM267.99,662.66l-.31.62-10.75,6.07h-.77c-8.26-8.41-17.92-15.72-27.72-21.49.31-1.09,1.87-1.87,2.96-2.64,13.08,3.42,25.38,9.34,36.6,17.43ZM225.15,643.66v.31c-13.55,9.96-35.5,10.91-49.83,1.71-.79-.62-2.33-.93-2.49-2.02,16.51-3.89,35.98-4.21,52.32,0ZM209.11,636.66c-4.19-.47-9.34-.63-13.85-.16-1.71-.15-3.73,0-5.77.16-37.38,2.95-71.78,22.42-93.29,55.6,1.56-.16,3.42.46,4.99-.16,3.74-5.3,7.94-10.43,12.62-15.42,4.05-3.9,7.79-7.63,12.15-10.43,4.04,2.65,8.57,4.83,12.45,7.32-4.83,6.07-9.81,12.14-13.39,18.69,1.09.46,3.11.3,4.67,0,3.88-5.76,8.1-11.53,13.07-16.66,6.7,2.49,13.24,5.13,20.1,7.01l.62.62-3.89,9.04c1.71.3,2.8.14,4.51,0,1.41-2.65,2.49-5.62,4.05-8.25,9.03,2.02,18.54,3.11,28.18,3.42,1.25,1.09.32,3.42.78,4.83h4.2c.47-1.57-.15-3.28.47-4.67,9.03-.47,18.53-1.41,27.26-3.58l.77.15,4.21,8.11c1.39,0,3.27.3,4.36-.31l-3.9-9.03.31-.31c7.16-1.87,13.86-4.67,20.71-7.48,4.83,5.14,9.34,11.22,13.4,17.14,1.7,0,3.42.14,4.68-.31-1.87-3.42-4.21-6.85-6.7-9.82-2.03-2.96-4.21-5.61-6.86-8.41v-.78l10.9-6.38,1.56-.62c9.5,7.33,17.92,16.19,24.6,26.01,1.87,0,3.43.62,4.99-.16-20.87-31.77-55.28-52.17-92.51-55.13l-.15.31-.31-.32ZM373.26,917.74H25.98v-319.24h347.28v319.24Z"/>
  </g>
  <line class="cls-1" x1="415.61" y1="637.39" x2="415.61" y2="897.85"/>
  <g>
    <path class="cls-3" d="M453.5,657.09h6.19v46.46h-6.19v-46.46Z"/>
    <path class="cls-3" d="M469.19,669.92h5.21v5.33h.13c2.34-4.17,6.12-6.12,10.93-6.12,8.85,0,11.59,5.08,11.59,12.3v22.13h-5.53v-22.77c0-4.1-2.6-6.77-6.83-6.77-6.71,0-9.96,4.49-9.96,10.54v19h-5.53v-33.64h0Z"/>
    <path class="cls-3" d="M513.08,669.92h6.7v4.88h-6.7v20.89c0,2.54.72,3,4.17,3h2.53v4.88h-4.23c-5.72,0-8-1.17-8-7.35v-21.41h-5.73v-4.88h5.73v-10.09h5.53v10.09h0Z"/>
    <path class="cls-3" d="M554.61,692.89c-1.5,7.42-6.83,11.45-14.38,11.45-10.74,0-15.82-7.42-16.14-17.7,0-10.09,6.64-17.51,15.82-17.51,11.91,0,15.55,11.13,15.23,19.26h-25.19c-.19,5.86,3.13,11.06,10.48,11.06,4.56,0,7.74-2.21,8.72-6.57h5.46ZM549.27,683.52c-.26-5.27-4.23-9.5-9.7-9.5-5.79,0-9.24,4.36-9.63,9.5h19.33Z"/>
    <path class="cls-3" d="M560.67,669.92h5.21v7.09h.13c2.66-5.4,6.38-8.07,12.36-7.87v5.86c-8.92,0-12.17,5.07-12.17,13.6v14.97h-5.54v-33.65h0Z"/>
    <path class="cls-3" d="M583.72,669.92h5.2v5.33h.13c2.34-4.17,6.12-6.12,10.93-6.12,8.86,0,11.59,5.08,11.59,12.3v22.13h-5.53v-22.77c0-4.1-2.6-6.77-6.83-6.77-6.7,0-9.96,4.49-9.96,10.54v19h-5.53v-33.64h0Z"/>
    <path class="cls-3" d="M649.74,703.42c-.98.59-2.21.91-3.97.91-2.87,0-4.69-1.56-4.69-5.2-3.05,3.58-7.16,5.2-11.85,5.2-6.12,0-11.13-2.73-11.13-9.43,0-7.61,5.66-9.24,11.39-10.35,6.12-1.17,11.32-.79,11.32-4.95,0-4.81-3.97-5.59-7.48-5.59-4.68,0-8.13,1.43-8.39,6.38h-5.53c.33-8.33,6.77-11.26,14.25-11.26,6.06,0,12.63,1.37,12.63,9.24v17.31c0,2.6,0,3.77,1.76,3.77.45,0,.98-.07,1.69-.33v4.29ZM640.75,686.19c-2.15,1.56-6.31,1.63-10.02,2.28-3.65.65-6.77,1.95-6.77,6.05,0,3.65,3.13,4.94,6.51,4.94,7.29,0,10.28-4.55,10.28-7.61,0,0,0-5.66,0-5.66Z"/>
    <path class="cls-3" d="M662.57,669.92h6.7v4.88h-6.7v20.89c0,2.54.72,3,4.17,3h2.54v4.88h-4.23c-5.73,0-8.01-1.17-8.01-7.35v-21.41h-5.72v-4.88h5.72v-10.09h5.53v10.09h0Z"/>
    <path class="cls-3" d="M681.27,663.86h-5.53v-6.77h5.53v6.77ZM675.73,669.92h5.53v33.64h-5.53v-33.64Z"/>
    <path class="cls-3" d="M704.38,669.13c10.67,0,16.33,7.75,16.33,17.64s-5.66,17.57-16.33,17.57-16.34-7.74-16.34-17.57c0-9.89,5.67-17.64,16.34-17.64ZM704.38,699.46c5.79,0,10.48-4.55,10.48-12.69s-4.68-12.76-10.48-12.76-10.48,4.56-10.48,12.76c0,8.14,4.69,12.69,10.48,12.69Z"/>
    <path class="cls-3" d="M727.24,669.92h5.21v5.33h.12c2.34-4.17,6.12-6.12,10.93-6.12,8.86,0,11.58,5.08,11.58,12.3v22.13h-5.53v-22.77c0-4.1-2.6-6.77-6.83-6.77-6.7,0-9.96,4.49-9.96,10.54v19h-5.53v-33.64h0Z"/>
    <path class="cls-3" d="M793.25,703.42c-.98.59-2.21.91-3.97.91-2.87,0-4.69-1.56-4.69-5.2-3.05,3.58-7.16,5.2-11.85,5.2-6.12,0-11.13-2.73-11.13-9.43,0-7.61,5.67-9.24,11.39-10.35,6.12-1.17,11.32-.79,11.32-4.95,0-4.81-3.97-5.59-7.48-5.59-4.68,0-8.13,1.43-8.39,6.38h-5.53c.33-8.33,6.77-11.26,14.25-11.26,6.05,0,12.63,1.37,12.63,9.24v17.31c0,2.6,0,3.77,1.75,3.77.46,0,.98-.07,1.7-.33v4.29h0ZM784.27,686.19c-2.15,1.56-6.31,1.63-10.02,2.28-3.65.65-6.77,1.95-6.77,6.05,0,3.65,3.13,4.94,6.51,4.94,7.29,0,10.28-4.55,10.28-7.61v-5.66Z"/>
    <path class="cls-3" d="M798.73,657.09h5.53v46.46h-5.53v-46.46Z"/>
    <path class="cls-3" d="M472.89,742.8c14.77,0,22.26,11.72,22.26,24.34s-7.49,24.34-22.26,24.34-22.26-11.72-22.26-24.34,7.49-24.34,22.26-24.34ZM472.89,786.28c11.32,0,16.07-9.76,16.07-19.13s-4.75-19.13-16.07-19.13-16.07,9.76-16.07,19.13,4.75,19.13,16.07,19.13Z"/>
    <path class="cls-3" d="M501.62,756.74h5.2v7.09h.13c2.67-5.4,6.38-8.07,12.36-7.87v5.86c-8.92,0-12.17,5.07-12.17,13.6v14.97h-5.53v-33.65h0Z"/>
    <path class="cls-3" d="M550.7,787.51c0,10.93-5.01,16.53-15.62,16.53-6.31,0-13.6-2.54-13.92-9.89h5.53c.27,4.04,5.08,5.47,8.72,5.47,7.23,0,10.09-5.21,10.09-12.76v-2.21h-.12c-1.82,4.1-6.25,6.12-10.48,6.12-10.02,0-15.04-7.87-15.04-17.05,0-7.94,3.91-17.77,15.55-17.77,4.23,0,8.01,1.89,10.03,5.59h.07v-4.81h5.2s0,30.78,0,30.78ZM545.24,772.87c0-5.92-2.6-12.04-9.57-12.04s-9.96,5.79-9.96,12.24c0,6.05,2.21,12.82,9.51,12.82,7.29,0,10.02-6.7,10.02-13.02Z"/>
    <path class="cls-3" d="M588.86,790.24c-.98.59-2.21.91-3.97.91-2.87,0-4.69-1.56-4.69-5.2-3.05,3.58-7.16,5.2-11.85,5.2-6.12,0-11.13-2.73-11.13-9.43,0-7.61,5.66-9.24,11.39-10.35,6.12-1.17,11.32-.79,11.32-4.95,0-4.81-3.97-5.59-7.48-5.59-4.68,0-8.13,1.43-8.39,6.38h-5.53c.33-8.33,6.77-11.26,14.25-11.26,6.06,0,12.63,1.37,12.63,9.24v17.31c0,2.6,0,3.77,1.76,3.77.45,0,.98-.07,1.69-.33v4.29ZM579.88,773c-2.15,1.56-6.31,1.63-10.02,2.28-3.65.65-6.77,1.95-6.77,6.05,0,3.65,3.13,4.94,6.51,4.94,7.29,0,10.28-4.55,10.28-7.61,0,0,0-5.66,0-5.66Z"/>
    <path class="cls-3" d="M594.02,756.74h5.2v5.33h.13c2.34-4.17,6.12-6.12,10.93-6.12,8.86,0,11.59,5.08,11.59,12.3v22.13h-5.53v-22.77c0-4.1-2.6-6.77-6.83-6.77-6.7,0-9.96,4.49-9.96,10.54v19h-5.53v-33.64h0Z"/>
    <path class="cls-3" d="M636.08,750.68h-5.53v-6.77h5.53v6.77ZM630.54,756.74h5.53v33.64h-5.53v-33.64Z"/>
    <path class="cls-3" d="M641.94,786.15l20.3-24.53h-19v-4.88h26.16v3.77l-20.57,24.99h21.48v4.88h-28.37s0-4.23,0-4.23Z"/>
    <path class="cls-3" d="M705.73,790.24c-.98.59-2.21.91-3.97.91-2.87,0-4.69-1.56-4.69-5.2-3.05,3.58-7.16,5.2-11.85,5.2-6.12,0-11.13-2.73-11.13-9.43,0-7.61,5.66-9.24,11.39-10.35,6.12-1.17,11.32-.79,11.32-4.95,0-4.81-3.97-5.59-7.48-5.59-4.68,0-8.13,1.43-8.39,6.38h-5.53c.33-8.33,6.77-11.26,14.25-11.26,6.06,0,12.63,1.37,12.63,9.24v17.31c0,2.6,0,3.77,1.76,3.77.45,0,.98-.07,1.69-.33v4.29ZM696.75,773c-2.15,1.56-6.31,1.63-10.02,2.28-3.65.65-6.77,1.95-6.77,6.05,0,3.65,3.13,4.94,6.51,4.94,7.29,0,10.28-4.55,10.28-7.61,0,0,0-5.66,0-5.66Z"/>
    <path class="cls-3" d="M718.57,756.74h6.7v4.88h-6.7v20.89c0,2.54.72,3,4.17,3h2.54v4.88h-4.23c-5.73,0-8.01-1.17-8.01-7.35v-21.41h-5.72v-4.88h5.72v-10.09h5.53v10.09h0Z"/>
    <path class="cls-3" d="M737.26,750.68h-5.53v-6.77h5.53v6.77ZM731.73,756.74h5.53v33.64h-5.53v-33.64Z"/>
    <path class="cls-3" d="M760.38,755.95c10.67,0,16.33,7.75,16.33,17.64s-5.66,17.57-16.33,17.57-16.34-7.74-16.34-17.57,5.67-17.64,16.34-17.64ZM760.38,786.28c5.79,0,10.48-4.55,10.48-12.69s-4.68-12.76-10.48-12.76-10.48,4.56-10.48,12.76c0,8.14,4.69,12.69,10.48,12.69Z"/>
    <path class="cls-3" d="M783.24,756.74h5.2v5.33h.13c2.34-4.17,6.12-6.12,10.93-6.12,8.86,0,11.58,5.08,11.58,12.3v22.13h-5.53v-22.77c0-4.1-2.6-6.77-6.83-6.77-6.7,0-9.96,4.49-9.96,10.54v19h-5.53v-33.64h0Z"/>
    <path class="cls-3" d="M839.82,761.62h-5.67v-4.88h5.67v-5.01c0-5.47,3.26-8.33,9.31-8.33,1.04,0,2.54.2,3.58.52v4.82c-.98-.33-2.15-.46-3.13-.46-2.67,0-4.23.85-4.23,3.77v4.69h6.51v4.88h-6.51v28.76h-5.53v-28.76h0Z"/>
    <path class="cls-3" d="M871.33,755.95c10.67,0,16.33,7.75,16.33,17.64s-5.66,17.57-16.33,17.57-16.34-7.74-16.34-17.57,5.67-17.64,16.34-17.64ZM871.33,786.28c5.79,0,10.48-4.55,10.48-12.69s-4.68-12.76-10.48-12.76-10.48,4.56-10.48,12.76,4.69,12.69,10.48,12.69Z"/>
    <path class="cls-3" d="M893.99,756.74h5.21v7.09h.12c2.67-5.4,6.38-8.07,12.37-7.87v5.86c-8.92,0-12.17,5.07-12.17,13.6v14.97h-5.53v-33.65h0Z"/>
    <path class="cls-3" d="M480.12,844.33c-.72-6.64-5.14-9.5-11.52-9.5-5.2,0-10.41,1.89-10.41,7.94,0,5.73,7.42,6.58,14.91,8.26,7.42,1.69,14.84,4.3,14.84,13.41,0,9.89-9.7,13.86-18.16,13.86-10.41,0-19.2-5.08-19.2-16.4h5.85c0,7.81,6.51,11.19,13.54,11.19,5.59,0,11.78-1.75,11.78-8.46s-7.42-7.49-14.84-9.12-14.91-3.77-14.91-12.3c0-9.44,8.39-13.6,16.86-13.6,9.5,0,16.72,4.49,17.11,14.71,0,0-5.86,0-5.86,0Z"/>
    <path class="cls-3" d="M502.21,843.56h6.7v4.88h-6.7v20.89c0,2.54.72,3,4.17,3h2.53v4.88h-4.23c-5.72,0-8-1.17-8-7.35v-21.41h-5.73v-4.88h5.73v-10.09h5.53v10.09h0Z"/>
    <path class="cls-3" d="M544.84,877.06c-.98.59-2.21.91-3.97.91-2.86,0-4.68-1.56-4.68-5.2-3.05,3.58-7.15,5.2-11.85,5.2-6.12,0-11.13-2.73-11.13-9.43,0-7.61,5.66-9.24,11.39-10.35,6.12-1.17,11.33-.79,11.33-4.95,0-4.81-3.97-5.59-7.49-5.59-4.69,0-8.13,1.43-8.4,6.38h-5.53c.33-8.33,6.77-11.26,14.25-11.26,6.05,0,12.63,1.37,12.63,9.24v17.31c0,2.6,0,3.77,1.75,3.77.46,0,.98-.07,1.7-.33,0,0,0,4.29,0,4.29ZM535.86,859.82c-2.15,1.56-6.31,1.63-10.02,2.28-3.65.65-6.77,1.95-6.77,6.05,0,3.65,3.13,4.94,6.51,4.94,7.29,0,10.29-4.55,10.29-7.61v-5.66Z"/>
    <path class="cls-3" d="M550,843.56h5.2v5.33h.12c2.34-4.17,6.12-6.12,10.94-6.12,8.85,0,11.59,5.08,11.59,12.3v22.13h-5.53v-22.77c0-4.1-2.6-6.77-6.84-6.77-6.7,0-9.95,4.49-9.95,10.54v19h-5.53v-33.64h0Z"/>
    <path class="cls-3" d="M616.27,877.2h-5.53v-4.56h-.13c-1.82,3.71-6.12,5.33-10.74,5.33-10.35,0-15.49-8.2-15.49-17.7s5.08-17.51,15.36-17.51c3.45,0,8.4,1.3,10.87,5.27h.13v-17.31h5.53v46.47ZM600.65,873.1c7.42,0,10.29-6.38,10.29-12.69,0-6.64-3-12.76-10.61-12.76s-10.09,6.45-10.09,13.02c0,6.32,3.26,12.43,10.41,12.43Z"/>
    <path class="cls-3" d="M654.63,877.06c-.98.59-2.21.91-3.97.91-2.87,0-4.69-1.56-4.69-5.2-3.05,3.58-7.16,5.2-11.85,5.2-6.12,0-11.13-2.73-11.13-9.43,0-7.61,5.66-9.24,11.39-10.35,6.12-1.17,11.32-.79,11.32-4.95,0-4.81-3.97-5.59-7.48-5.59-4.68,0-8.13,1.43-8.39,6.38h-5.53c.33-8.33,6.77-11.26,14.25-11.26,6.05,0,12.63,1.37,12.63,9.24v17.31c0,2.6,0,3.77,1.75,3.77.46,0,.98-.07,1.7-.33,0,0,0,4.29,0,4.29ZM645.64,859.82c-2.15,1.56-6.31,1.63-10.02,2.28-3.65.65-6.77,1.95-6.77,6.05,0,3.65,3.13,4.94,6.51,4.94,7.29,0,10.28-4.55,10.28-7.61,0,0,0-5.66,0-5.66Z"/>
    <path class="cls-3" d="M659.59,843.56h5.21v7.09h.12c2.67-5.4,6.38-8.07,12.37-7.87v5.86c-8.92,0-12.17,5.07-12.17,13.6v14.97h-5.53v-33.65h0Z"/>
    <path class="cls-3" d="M710.37,877.2h-5.53v-4.56h-.13c-1.82,3.71-6.12,5.33-10.74,5.33-10.35,0-15.49-8.2-15.49-17.7s5.08-17.51,15.36-17.51c3.45,0,8.39,1.3,10.86,5.27h.13v-17.31h5.53s0,46.47,0,46.47ZM694.75,873.1c7.42,0,10.29-6.38,10.29-12.69,0-6.64-3-12.76-10.61-12.76s-10.09,6.45-10.09,13.02c0,6.32,3.25,12.43,10.41,12.43Z"/>
    <path class="cls-3" d="M724.77,837.5h-5.53v-6.77h5.53v6.77ZM719.24,843.56h5.53v33.64h-5.53s0-33.64,0-33.64Z"/>
    <path class="cls-3" d="M730.63,872.97l20.31-24.53h-19v-4.88h26.16v3.77l-20.57,24.99h21.48v4.88h-28.37v-4.23Z"/>
    <path class="cls-3" d="M794.43,877.06c-.98.59-2.21.91-3.97.91-2.87,0-4.69-1.56-4.69-5.2-3.05,3.58-7.16,5.2-11.85,5.2-6.12,0-11.13-2.73-11.13-9.43,0-7.61,5.67-9.24,11.39-10.35,6.12-1.17,11.32-.79,11.32-4.95,0-4.81-3.97-5.59-7.48-5.59-4.68,0-8.13,1.43-8.39,6.38h-5.53c.33-8.33,6.77-11.26,14.25-11.26,6.06,0,12.63,1.37,12.63,9.24v17.31c0,2.6,0,3.77,1.76,3.77.45,0,.98-.07,1.69-.33v4.29h0ZM785.45,859.82c-2.15,1.56-6.31,1.63-10.02,2.28-3.65.65-6.77,1.95-6.77,6.05,0,3.65,3.13,4.94,6.51,4.94,7.29,0,10.28-4.55,10.28-7.61v-5.66Z"/>
    <path class="cls-3" d="M807.27,843.56h6.7v4.88h-6.7v20.89c0,2.54.72,3,4.17,3h2.54v4.88h-4.23c-5.73,0-8.01-1.17-8.01-7.35v-21.41h-5.72v-4.88h5.72v-10.09h5.53v10.09h0Z"/>
    <path class="cls-3" d="M825.96,837.5h-5.53v-6.77h5.53v6.77ZM820.43,843.56h5.53v33.64h-5.53v-33.64Z"/>
    <path class="cls-3" d="M849.07,842.77c10.67,0,16.33,7.75,16.33,17.64s-5.66,17.57-16.33,17.57-16.34-7.74-16.34-17.57c0-9.89,5.67-17.64,16.34-17.64ZM849.07,873.1c5.79,0,10.48-4.55,10.48-12.69s-4.68-12.76-10.48-12.76-10.48,4.56-10.48,12.76c0,8.14,4.69,12.69,10.48,12.69Z"/>
    <path class="cls-3" d="M871.93,843.56h5.21v5.33h.12c2.34-4.17,6.12-6.12,10.93-6.12,8.86,0,11.58,5.08,11.58,12.3v22.13h-5.53v-22.77c0-4.1-2.6-6.77-6.83-6.77-6.7,0-9.96,4.49-9.96,10.54v19h-5.53v-33.64h0Z"/>
  </g>
  
</svg>